<svg id="Layer_1" enable-background="new 0 0 256 256" height="512" viewBox="0 0 256 256" width="512" xmlns="http://www.w3.org/2000/svg"><g><path d="m51.772 145.563s15.863 53.161-13.726 75.803h35.902s12.533-41.439-10.832-74.683z" fill="#f8af23"/><g><path d="m65.662 150.574c-.799-1.307-1.643-2.606-2.546-3.892l-11.344-1.12s15.863 53.161-13.726 75.803h12.632c24.067-18.416 18.063-57.023 14.984-70.791z" fill="#f87023"/></g><g fill="#72c777"><path d="m74.567 89.405c-14.329 0-25.944 11.616-25.944 25.944 0 7.446 3.142 14.155 8.166 18.886l20.82-44.647c-.998-.116-2.012-.183-3.042-.183z"/><path d="m99.91 113.359c-10.76-9.462-27.153-8.41-36.615 2.35-4.917 5.592-6.988 12.704-6.34 19.575l45.118-19.778c-.673-.748-1.39-1.467-2.163-2.147z"/><path d="m92.172 167.376c5.195-13.354-1.418-28.39-14.772-33.586-6.939-2.7-14.331-2.204-20.562.763l34.06 35.592c.471-.889.901-1.809 1.274-2.769z"/><path d="m21.506 167.376c-5.195-13.354 1.418-28.39 14.772-33.586 6.939-2.7 14.331-2.204 20.562.763l-34.06 35.592c-.471-.889-.901-1.809-1.274-2.769z"/></g><g><path d="m48.909 133.791c1.023-.398 2.057-.718 3.094-.98-5.041-1.273-10.511-1.049-15.726.98-13.354 5.195-19.967 20.232-14.771 33.586.373.96.803 1.88 1.274 2.768l9.673-10.108c-.894-11.13 5.517-21.991 16.456-26.246z" fill="#52aa57"/></g><path d="m13.768 113.359c10.76-9.462 27.153-8.41 36.615 2.35 4.917 5.592 6.988 12.704 6.34 19.575l-45.118-19.778c.673-.748 1.39-1.467 2.163-2.147z" fill="#72c777"/><g><path d="m26.4 113.359c3.214-2.826 6.932-4.707 10.816-5.679-7.99-1.998-16.795-.172-23.448 5.679-.773.68-1.49 1.399-2.163 2.146l45.118 19.778c.175-1.851.145-3.719-.077-5.571l-32.409-14.207c.672-.747 1.39-1.466 2.163-2.146z" fill="#52aa57"/></g><circle cx="56.839" cy="135.284" fill="#cecece" r="9.397"/><g fill="#cecece"><circle cx="66.236" cy="146.682" r="9.397"/><circle cx="47.442" cy="146.682" r="9.397"/></g><path d="m63.116 202.373c-17.083 0-31.581 7.949-36.792 18.992h73.584c-5.211-11.043-19.709-18.992-36.792-18.992z" fill="#cecece"/><g><path d="m69.432 202.743c-2.056-.242-4.165-.37-6.316-.37-17.083 0-31.581 7.949-36.792 18.992h12.632c4.554-9.653 16.206-16.94 30.476-18.622z" fill="#afafaf"/></g><g><path d="m167.437 94.872 37.938 2.867v10.369l-37.938 1.403z" fill="#f8af23"/><path d="m72.287 48.7h-49.771l-2.711-.855c-4.387-1.384-9.143.507-11.382 4.525-1.528 2.743.323 6.142 3.456 6.347l60.408 3.95z" fill="#f8af23"/><path d="m21.124 53.006c1.049-1.883 2.592-3.344 4.388-4.305h-2.996l-2.711-.855c-4.387-1.384-9.143.507-11.382 4.526-1.528 2.743.323 6.142 3.456 6.347l10.883.712c-2.053-1.302-2.947-4.075-1.638-6.425z" fill="#f87023"/><path d="m86.742 114.817 3.174 11.768c2.759 10.229 9.663 18.841 19.047 23.759l20.657 10.827 13.907-9.515-14.638-32.449z" fill="#cecece"/><g><path d="m102.548 126.586-2.809-10.414-12.997-1.354 3.174 11.768c2.759 10.229 9.663 18.841 19.047 23.76l20.657 10.827 5.479-3.749-13.505-7.078c-9.383-4.919-16.287-13.532-19.046-23.76z" fill="#afafaf"/></g><path d="m86.742 114.817v-44.403l-14.455-7.746v-13.968h36.596l40.744 19.03-4.88 12.931h-8.051l-12.992 14.211z" fill="#63bce7"/><path d="m84.918 62.668v-13.968h-12.631v13.968l14.455 7.746v44.403l12.632-6.816v-37.587z" fill="#6377e7"/><path d="m205.375 97.739s-.868 7.192-8.18 10.671c0 3.673 2.978 6.651 6.651 6.651h3.611c2.002 0 3.897-.902 5.16-2.455 1.593-1.959 3.983-3.096 6.507-3.096 4.072 0 7.886-1.995 10.208-5.34l1.443-2.078c1.276-1.838-.039-4.353-2.277-4.353z" fill="#63bce7"/><path d="m123.704 94.872h43.732v14.638l-49.753 19.55c-12.487 4.907-26.549-1.566-30.941-14.244z" fill="#cecece"/><path d="m99.986 107.671-13.243 7.146c4.392 12.678 18.454 19.151 30.941 14.244l2.615-1.028c-8.964-3.616-16.471-10.745-20.313-20.362z" fill="#afafaf"/><path d="m149.627 67.73 11.282 2.746 7.992-12.017h-.502c-3.159 0-5.72-2.561-5.72-5.72v-.16c0-2.816 2.283-5.1 5.1-5.1h6.949c2.766 0 4.847 2.522 4.321 5.238l-1.182 6.107-4.456 15.514c-1.603 5.58-7.045 9.15-12.801 8.397l-15.862-2.075z" fill="#f8af23"/><path d="m151.226 161.116-7.698-9.459-13.906 9.515 10.691 11.618-28.373 25.224 6.598 7.998 31.09-21.93.548-.558c6.007-6.11 6.459-15.761 1.05-22.408z" fill="#f8af23"/><path d="m118.537 206.013s-3.907-6.1-.481-13.437c-2.337-2.833-6.529-3.236-9.363-.898l-2.785 2.298c-1.544 1.274-2.432 3.175-2.418 5.177.018 2.524-1.103 4.923-3.05 6.529-3.141 2.591-4.814 6.557-4.477 10.615l.209 2.522c.185 2.23 2.8 3.333 4.527 1.909z" fill="#63bce7"/><g><circle cx="216.253" cy="62.668" fill="#cecece" r="23.446"/><path d="m216.253 54.927-7.947 5.774 3.036 9.342h9.823l3.035-9.342z" fill="#707070"/><g><path d="m224.199 41.005-7.946 5.774-7.946-5.774.148-.453c.059-.024.118-.044.177-.065 2.387-.819 4.952-1.266 7.62-1.266s5.233.447 7.62 1.266c.059.021.118.041.177.065z" fill="#707070"/></g><g><path d="m201.232 57.494-8.049 5.635-.373-.281c-.003-.059-.003-.121-.003-.18 0-.574.021-1.145.062-1.71.349-4.845 2.168-9.28 5.02-12.865l.47.009z" fill="#707070"/></g><g><path d="m209.18 84.629-.396.266c-.97-.322-1.914-.713-2.825-1.157-3.878-1.896-7.156-4.834-9.466-8.446l.163-.447 9.815.34z" fill="#707070"/></g><g><path d="m234.84 76.965c-2.195 2.849-5.029 5.18-8.292 6.774-1.515.74-3.115 1.325-4.792 1.725h-.003l-.367-.299 3.52-9.17 9.809.512z" fill="#707070"/></g><g><path d="m239.7 62.668c0 .748-.035 1.488-.106 2.219v.003l-.399.248-7.523-6.313 3.677-9.108.476.033c2.154 3.257 3.514 7.085 3.813 11.209.041.564.062 1.135.062 1.709z" fill="#707070"/></g></g><g><path d="m123.162 69.131c-.931 0-1.875-.217-2.757-.675-2.942-1.525-4.09-5.147-2.564-8.088l11.368-21.921c1.525-2.943 5.147-4.09 8.088-2.564 2.942 1.525 4.09 5.147 2.564 8.088l-11.368 21.921c-1.067 2.058-3.162 3.239-5.331 3.239z" fill="#f8af23"/></g><circle cx="131.813" cy="43.116" fill="#f8af23" r="17.353"/><g><path d="m127.092 43.116c0-7.353 4.58-13.622 11.037-16.15-1.959-.767-4.085-1.203-6.316-1.203-9.584 0-17.353 7.769-17.353 17.353 0 9.583 7.769 17.353 17.353 17.353 2.231 0 4.357-.436 6.316-1.203-6.457-2.528-11.037-8.797-11.037-16.15z" fill="#f87023"/></g></g><g fill="#3f3679"><path d="m191.307 62.668c0 13.755 11.191 24.946 24.947 24.946 13.755 0 24.946-11.191 24.946-24.946 0-13.756-11.191-24.947-24.946-24.947-13.756 0-24.947 11.191-24.947 24.947zm24.946-5.887 6.184 4.492-2.362 7.27h-7.644l-2.362-7.27zm9.117 5.173 5.924-1.487 6.646 5.577c-.508 3.275-1.743 6.313-3.534 8.944l-8.644-.451-2.953-4.698zm12.821.384-4.721-3.962 2.306-5.713c1.498 2.91 2.364 6.195 2.415 9.675zm-31.107-.545 2.556 7.865-3.793 4.005-8.748-.303c-1.549-2.764-2.516-5.894-2.737-9.226l7.031-4.922zm-7.605-4.902-5.059 3.542c.35-3.44 1.501-6.644 3.258-9.431zm-.3 19.544 6.15.213 1.701 5.927c-3.066-1.426-5.749-3.538-7.851-6.14zm11.338 7.414-2.368-8.252 3.838-4.053h8.349l2.9 4.614-3.112 8.108c-1.258.225-2.549.349-3.871.349-1.984-.001-3.906-.27-5.736-.766zm13.187-.539 2.211-5.761 6.144.321c-2.311 2.402-5.16 4.283-8.355 5.44zm10.107-33.794-3.245 8.04-6.051 1.519-6.761-4.912v-6.62l7.019-5.101c3.603 1.524 6.718 3.985 9.038 7.074zm-12.569-8.216-4.988 3.625-4.988-3.625c1.604-.374 3.272-.579 4.988-.579s3.384.205 4.988.579zm-13.508 1.142 7.019 5.101v6.62l-6.623 4.811-5.662-2.566-2.559-8.367c2.15-2.399 4.816-4.326 7.825-5.599z"/><path d="m182.76 153.141c.384 0 .768-.146 1.061-.439l27.466-27.465c.586-.585.586-1.536 0-2.121-.586-.586-1.535-.586-2.121 0l-27.466 27.465c-.586.585-.586 1.536 0 2.121.292.293.676.439 1.06.439z"/><path d="m224.708 125.236c.293.293.677.439 1.061.439s.768-.146 1.061-.439l16.077-16.077c.586-.585.586-1.536 0-2.121-.586-.586-1.535-.586-2.121 0l-16.077 16.077c-.587.586-.587 1.536-.001 2.121z"/><path d="m192.693 120.771c-.586-.586-1.535-.586-2.121 0l-12.437 12.437c-.586.586-.586 1.536 0 2.121.293.293.677.439 1.061.439s.768-.146 1.061-.439l12.437-12.437c.585-.586.585-1.536-.001-2.121z"/><path d="m186.588 39.7c.384 0 .768-.146 1.061-.439l12.437-12.437c.586-.585.586-1.536 0-2.121-.586-.586-1.535-.586-2.121 0l-12.437 12.437c-.586.585-.586 1.536 0 2.121.293.293.677.439 1.06.439z"/><path d="m249.183 22.601c-.586-.586-1.535-.586-2.121 0l-12.437 12.437c-.586.585-.586 1.535 0 2.121.293.293.677.439 1.061.439s.768-.146 1.061-.439l12.437-12.437c.585-.585.585-1.535-.001-2.121z"/><path d="m27.323 230.838h-18.003c-.829 0-1.5.671-1.5 1.5s.671 1.5 1.5 1.5h18.003c.829 0 1.5-.671 1.5-1.5s-.671-1.5-1.5-1.5z"/><path d="m246.68 230.838h-18.003c-.829 0-1.5.671-1.5 1.5s.671 1.5 1.5 1.5h18.003c.829 0 1.5-.671 1.5-1.5s-.671-1.5-1.5-1.5z"/><path d="m218.479 230.838h-180.958c-.829 0-1.5.671-1.5 1.5s.671 1.5 1.5 1.5h180.959c.829 0 1.5-.671 1.5-1.5s-.672-1.5-1.501-1.5z"/><path d="m246.68 219.866h-142.578l15.348-12.661 31.041-21.896c.073-.052.753-.731.753-.731 6.552-6.666 7.044-17.159 1.145-24.408l-7.576-9.308-11.822-26.204 34.756-13.658 28.1-1.039c.727 3.755 4.035 6.6 7.998 6.6h3.611c2.464 0 4.769-1.096 6.324-3.008 1.314-1.615 3.262-2.542 5.344-2.542 4.562 0 8.839-2.237 11.441-5.984l1.442-2.079c.91-1.311 1.016-3.003.276-4.417-.739-1.414-2.19-2.292-3.785-2.292h-23.069l-37.88-2.862c-.018-.001-.036.002-.054.001-.02-.001-.038-.006-.058-.006h-40.329l10.249-11.212h7.293l15.765 2.063c.592.078 1.181.115 1.763.115 5.845 0 11.018-3.817 12.675-9.585l4.456-15.514c.012-.042.022-.085.031-.129l1.182-6.107c.336-1.736-.116-3.514-1.241-4.877-1.125-1.364-2.784-2.146-4.552-2.146h-6.949c-3.639 0-6.6 2.96-6.6 6.6v.16c0 3.253 2.164 6.011 5.127 6.91l-6.065 9.12-10.117-2.462-11.813-5.517c7.198-2.656 12.354-9.565 12.354-17.674 0-10.396-8.457-18.853-18.853-18.853s-18.853 8.458-18.853 18.853c0 2.234.411 4.369 1.128 6.36l-4.571-2.135c-.199-.093-.416-.141-.635-.141h-36.595-49.54l-2.491-.786c-5.043-1.59-10.57.608-13.143 5.227-.97 1.74-.98 3.823-.027 5.572.952 1.75 2.708 2.872 4.695 3.001l60.083 3.929 13.378 7.169v34.205c-5.131-.46-10.202.524-14.693 2.76l8.42-18.056c.204-.437.185-.944-.05-1.365-.234-.421-.657-.703-1.135-.759-1.1-.129-2.182-.194-3.216-.194-13.488 0-24.971 9.962-27.089 23.063-10.178-7.718-24.747-7.49-34.702 1.266-.779.685-1.548 1.448-2.287 2.269-.322.358-.453.849-.352 1.32.102.471.423.864.864 1.058l31.54 13.826c-2.314.267-4.592.825-6.809 1.687-6.832 2.658-12.22 7.817-15.171 14.528s-3.113 14.168-.455 21c.375.965.829 1.949 1.347 2.927.226.425.642.717 1.119.783.069.009.138.014.207.014.406 0 .799-.165 1.083-.463l15.983-16.702c1.965 1.914 4.643 3.099 7.596 3.099 1.88 0 3.65-.479 5.195-1.32 1.969 11.102 3.829 30.262-2.448 46.17-11.229 2.774-20.447 9.082-24.79 17.437h-16.079c-.829 0-1.5.671-1.5 1.5s.671 1.5 1.5 1.5h16.998.004.003 220.355c.829 0 1.5-.671 1.5-1.5s-.671-1.5-1.5-1.5zm-146.934-.295c-.268.221-.541.291-.773.295h-.002c-.232.003-.423-.059-.53-.104-.213-.09-.716-.374-.773-1.067l-.209-2.522c-.296-3.567 1.175-7.056 3.937-9.334 2.306-1.903 3.617-4.708 3.595-7.697-.011-1.557.672-3.018 1.873-4.009l2.785-2.298c.958-.791 2.119-1.175 3.273-1.175 1.208 0 2.409.422 3.362 1.242-2.256 5.697-.644 10.565.359 12.73zm-21.254-16.464c.36-4.789.138-15.847-.084-16.993-.686-9.446-3.022-17.762-4.858-22.506-.842-2.325-1.808-4.651-2.912-6.966 1.192-.529 2.272-1.264 3.194-2.162l15.983 16.702c.285.298.678.463 1.084.463.068 0 .137-.005.206-.014.477-.066.894-.357 1.119-.783.518-.978.972-1.962 1.347-2.927 5.487-14.103-1.522-30.041-15.625-35.528-2.22-.864-4.499-1.419-6.813-1.686l16.403-7.191.933 3.46c2.859 10.6 10.076 19.602 19.799 24.698l20.426 10.706 9.481 10.304-20.065 17.839c-2.95-2.433-7.313-2.523-10.37-.002l-2.785 2.298c-1.901 1.569-2.981 3.881-2.964 6.345.015 2.082-.898 4.036-2.504 5.361-2.382 1.965-3.988 4.644-4.674 7.576-4.335-4.017-9.979-7.085-16.321-8.994zm-29.522-67.201c-.016-.207-.028-.414-.028-.622 0-4.354 3.542-7.897 7.896-7.897s7.897 3.542 7.897 7.897c0 .21-.035.417-.051.625-3.347.48-6.202 2.48-7.846 5.283-1.647-2.809-4.511-4.812-7.868-5.286zm18.741-.009c.011-.205.025-.409.025-.614 0-.599-.061-1.182-.155-1.755 3.164-.059 6.279.493 9.276 1.659 6.085 2.367 10.884 6.963 13.512 12.939 2.629 5.977 2.773 12.62.405 18.705-.091.235-.188.472-.29.709l-14.796-15.462c.914-1.593 1.444-3.433 1.444-5.398 0-5.505-4.11-10.059-9.421-10.783zm-1.475 2.889c4.354 0 7.896 3.542 7.896 7.897 0 4.354-3.542 7.896-7.896 7.896s-7.897-3.542-7.897-7.896c0-4.355 3.542-7.897 7.897-7.897zm0 18.793c.502 0 .992-.046 1.476-.112 1.026 2.115 1.934 4.241 2.731 6.369-3.844 2.515-10.695 2.378-13.453 2.203-.429-4.551-1.066-8.604-1.68-11.838.585-.612 1.097-1.293 1.529-2.028 1.893 3.228 5.392 5.406 9.397 5.406zm-8.999 11.484c.65.035 1.443.063 2.338.063 3.446 0 8.338-.419 11.887-2.414 2.185 6.614 3.369 13.163 3.924 19.263-4.616 5.28-15.028 4.888-18.925 4.531 1.183-7.392 1.232-14.829.776-21.443zm91.868 13.411-.454.461-29.542 20.839c-.799-1.998-1.759-5.883.199-10.304l22-19.558c.301-.267.481-.644.501-1.046s-.122-.795-.394-1.091l-9.518-10.344 11.337-7.757 6.827 8.388c4.935 6.063 4.524 14.838-.956 20.412zm-7.462-31.345-5.105 3.493-7.02 4.803-19.858-10.408c-8.985-4.709-15.653-13.027-18.295-22.822l-.471-1.747c2.153 2.25 4.731 4.102 7.656 5.448 3.354 1.544 6.916 2.319 10.486 2.319 3.102 0 6.21-.585 9.196-1.758l11.965-4.702zm27.294-54.639 34.577 2.613c-.649 2.056-2.374 5.664-6.747 7.838-.051-.004-.1-.012-.152-.01l-27.678 1.023zm60.688 3.431c.107.206.314.744-.083 1.315l-1.442 2.079c-2.042 2.94-5.397 4.695-8.977 4.695-2.989 0-5.785 1.33-7.671 3.649-.983 1.208-2.439 1.901-3.997 1.901h-3.611c-2.541 0-4.658-1.85-5.076-4.273 5.365-2.959 7.22-7.741 7.824-10.049h21.905c.696.001 1.021.478 1.128.683zm-63.688 8.567-48.802 19.177c-5.655 2.223-11.81 2.047-17.33-.494-5.133-2.363-9.07-6.473-11.196-11.656l35.475-19.143h41.853zm-5.383-36.555c.611.149 1.253-.102 1.604-.627l7.992-12.017c.306-.46.334-1.052.073-1.539s-.77-.792-1.322-.792h-.501c-2.327 0-4.22-1.893-4.22-4.219v-.16c0-1.985 1.615-3.6 3.6-3.6h6.949c.869 0 1.685.384 2.238 1.055s.775 1.544.61 2.398l-1.169 6.042-4.438 15.45c-1.409 4.905-6.104 7.986-11.166 7.324l-13.985-1.83.167-.443 3.576-9.475zm-28.741-44.67c8.741 0 15.853 7.112 15.853 15.853s-7.111 15.853-15.853 15.853-15.853-7.111-15.853-15.853 7.112-15.853 15.853-15.853zm-12.641 33.794 1.453-2.802c2.407 1.784 5.247 3.002 8.336 3.475l-1.8 3.471c-.777 1.499-2.31 2.43-4 2.43-.723 0-1.418-.17-2.067-.507-1.067-.553-1.855-1.489-2.218-2.635-.362-1.146-.257-2.364.296-3.432zm-109.451-5.279c-.465-.853-.46-1.829.013-2.678 1.472-2.642 4.264-4.202 7.175-4.202.814 0 1.638.122 2.444.376l2.711.855c.146.046.298.069.451.069h48.271v10.867l-58.81-3.846c-.969-.062-1.791-.588-2.255-1.441zm64.066 5.992v-11.57h34.763l7.769 3.629c.593.855 1.255 1.656 1.978 2.401l-1.787 3.446c-.922 1.778-1.097 3.81-.492 5.719s1.918 3.47 3.696 4.392c1.064.552 2.256.844 3.448.844 2.815 0 5.368-1.551 6.663-4.049l2.403-4.634c.447-.01.891-.027 1.33-.067l14.175 6.621-4.022 10.66h-7.014c-.421 0-.823.177-1.107.488l-12.82 14.024-34.527 18.631v-1.662-40.229c0-.553-.304-1.061-.792-1.322zm11.455 46.761v2.11 4.176c0 .133.018.263.052.389v.002l1.451 5.379-20.613 9.036c-1.434-2.344-3.722-4.103-6.435-4.843 1.032-2.971 2.616-5.685 4.723-8.081 5.232-5.948 12.966-8.958 20.822-8.168zm-9.908-17.614-9.452 20.269c-.005.011-.007.022-.011.033-1.327 1.039-2.568 2.207-3.703 3.499-2.383 2.711-4.17 5.786-5.329 9.155-1.159-3.37-2.946-6.445-5.329-9.155-.42-.478-.859-.931-1.304-1.373 1.042-12.845 12.111-22.867 25.128-22.428zm-60.575 23.568c10.121-8.901 25.598-7.908 34.499 2.214 2.107 2.395 3.69 5.109 4.723 8.081-2.712.739-5.001 2.498-6.435 4.843l-33.354-14.621c.188-.178.377-.35.567-.517zm8.434 53.057c-.102-.238-.199-.474-.29-.709-4.887-12.562 1.356-26.757 13.918-31.644 2.994-1.165 6.107-1.72 9.276-1.662-.094.573-.155 1.157-.155 1.757 0 .205.016.409.028.613-5.313.723-9.425 5.277-9.425 10.786 0 1.965.53 3.805 1.444 5.398zm16.352-20.859c0-4.354 3.542-7.897 7.897-7.897 4.354 0 7.896 3.542 7.896 7.897 0 4.354-3.542 7.896-7.896 7.896s-7.897-3.542-7.897-7.896zm16.378 46.79c1.083.11 2.689.231 4.597.231 4.584 0 10.807-.705 15.137-3.928.236 4.568.143 8.802-.117 12.533-3.963-.936-8.147-1.436-12.424-1.436-3.234 0-6.402.282-9.451.818.948-2.685 1.692-5.439 2.258-8.218zm7.193 10.4c12.493 0 24.113 4.426 31.085 11.84.075.079.17.122.256.181.008.176.292 3.107.41 3.971h-66.023c5.89-9.651 19.278-15.992 34.272-15.992z"/></g></g></svg>