<svg id="Layer_1" enable-background="new 0 0 512 512" height="512" viewBox="0 0 512 512" width="512" xmlns="http://www.w3.org/2000/svg"><g><path d="m72 472h-48c-8.837 0-16-7.163-16-16v-112c0-8.837 7.163-16 16-16h48z" fill="#7acef9"/><path d="m120 504h-32c-8.837 0-16-7.163-16-16v-176c0-8.837 7.163-16 16-16h32c8.837 0 16 7.163 16 16v176c0 8.837-7.163 16-16 16z" fill="#595965"/><path d="m496 249.66c0 12.34-10 22.34-22.34 22.34h-3.32c-12.34 0-22.34-10-22.34-22.34 0-52.276-21.208-100.797-56.37-136.39-100.348-101.617-269.477-61.728-316.57 70.47-7.16 20.1-11.06 41.73-11.06 64.26 0 6.62-2.69 12.62-7.03 16.97-15.111 15.076-40.97 4.284-40.97-16.97 0-133.869 108.58-240 240-240 130.061 0 240 104.103 240 241.66z" fill="#7acef9"/><g fill="#6cb9e7"><path d="m243.98 56.38c-100.845 6.249-179.98 90.322-179.98 191.62 0 18.384-20.016 30.063-36 20.78 7.339-4.234 12-12.095 12-20.78 0-111.642 94.799-198.565 203.98-191.62z"/><path d="m496 249.66c0 12.34-10 22.34-22.34 22.34-4.472 0-8.399.235-13.66-2.54 7.13-3.72 12-11.19 12-19.8 0-134.31-104.359-235.292-227.97-241.37 136.477-6.534 251.97 100.723 251.97 241.37z"/><path d="m440 472h48c8.837 0 16-7.163 16-16v-112c0-8.837-7.163-16-16-16h-48z"/></g><path d="m392 504h32c8.837 0 16-7.163 16-16v-176c0-8.837-7.163-16-16-16h-32c-8.837 0-16 7.163-16 16v176c0 8.837 7.163 16 16 16z" fill="#595965"/><path d="m136 312v176c0 8.84-7.16 16-16 16h-30c8.84 0 16-7.16 16-16v-176c0-8.84-7.16-16-16-16h30c8.84 0 16 7.16 16 16z" fill="#44454e"/><path d="m440 312v176c0 8.84-7.16 16-16 16h-30c8.84 0 16-7.16 16-16v-176c0-8.84-7.16-16-16-16h30c8.84 0 16 7.16 16 16z" fill="#44454e"/><path d="m436.33 183.69c-27.23-2.14-52.42-15.39-70.19-36.46-58.354-68.923-163.81-67.931-220.92.77-17.54 21.08-42.99 33.82-70.16 35.74 26.5-74.39 97.65-127.78 181.04-127.74 81.885.031 153.013 53.256 180.23 127.69z" fill="#595965"/><circle cx="200" cy="296" fill="#c8effd" r="24"/><circle cx="296" cy="272" fill="#c8effd" r="24"/><path d="m320 152v40l-96 24v-40z" fill="#c8effd"/><path d="m488 320h-8v-40.671c13.695-2.924 24-15.113 24-29.668 0-142.814-114.374-249.661-248-249.661-137.062 0-248 110.919-248 248 0 14.883 10.214 27.426 24 30.987v41.013h-8c-13.234 0-24 10.766-24 24v112c0 13.234 10.766 24 24 24h40v8c0 13.234 10.767 24 24 24h32c13.233 0 24-10.766 24-24v-176c0-13.234-10.767-24-24-24h-32c-13.233 0-24 10.766-24 24v8h-16v-41.013c13.786-3.561 24-16.104 24-30.988 0-19.569 3.057-38.676 8.929-56.788 27.447-3.302 52.886-16.997 70.443-38.098 53.733-64.64 153.303-66.092 208.653-.726 18.289 21.686 43.203 35.318 70.6 38.756 6.075 18.407 9.375 38.08 9.375 58.517 0 14.555 10.305 26.745 24 29.668v40.672h-16v-8c0-13.234-10.767-24-24-24h-32c-13.233 0-24 10.766-24 24v176c0 13.234 10.767 24 24 24h32c13.233 0 24-10.766 24-24v-8h40c13.234 0 24-10.766 24-24v-112c0-13.234-10.766-24-24-24zm-408-8c0-4.411 3.589-8 8-8h32c4.411 0 8 3.589 8 8v176c0 4.411-3.589 8-8 8h-32c-4.411 0-8-3.589-8-8 0-38.977 0-137.157 0-176zm-16 152h-40c-4.411 0-8-3.589-8-8v-112c0-4.411 3.589-8 8-8h40zm308.246-321.939c-61.772-72.962-173.072-71.479-233.175.822-13.119 15.766-31.428 26.673-51.539 31.012 28.068-63.592 92.164-109.895 168.467-109.895 73.545 0 138.612 44.069 167.9 109.745-19.941-4.467-37.946-15.432-51.653-31.684zm83.754 107.599c0-110.144-89.892-201.605-199.9-201.66-110.211 0-200.1 89.363-200.1 200 0 8.823-7.178 16-16 16s-16-7.178-16-16c0-61.969 24.132-120.23 67.951-164.049 90.665-90.664 237.42-90.678 328.098 0 42.815 42.815 67.951 100.114 67.951 165.709 0 7.907-6.433 14.34-14.339 14.34h-3.321c-7.907 0-14.34-6.433-14.34-14.34zm-24 238.34c0 4.411-3.589 8-8 8h-32c-4.411 0-8-3.589-8-8v-176c0-4.411 3.589-8 8-8h32c4.411 0 8 3.589 8 8zm64-32c0 4.411-3.589 8-8 8h-40v-128h40c4.411 0 8 3.589 8 8z"/><path d="m176 376c-4.418 0-8 3.582-8 8v32c0 4.418 3.582 8 8 8s8-3.582 8-8v-32c0-4.418-3.582-8-8-8z"/><path d="m216 360c-4.418 0-8 3.582-8 8v64c0 4.418 3.582 8 8 8s8-3.582 8-8v-64c0-4.418-3.582-8-8-8z"/><path d="m336 376c-4.418 0-8 3.582-8 8v32c0 4.418 3.582 8 8 8s8-3.582 8-8v-32c0-4.418-3.582-8-8-8z"/><path d="m296 360c-4.418 0-8 3.582-8 8v64c0 4.418 3.582 8 8 8s8-3.582 8-8v-64c0-4.418-3.582-8-8-8z"/><path d="m257 344c-4.418 0-8 3.582-8 8v96c0 4.418 3.582 8 8 8s8-3.582 8-8v-96c0-4.418-3.582-8-8-8z"/><path d="m328 152c0-5.169-4.884-9.022-9.94-7.761-103.611 25.903-96.747 23.982-98.39 25.041-1.745 1.127-2.987 2.885-3.458 4.92-.319 1.382-.211-4.659-.211 94.105-21.137-12.259-48 3.005-48 27.695 0 17.645 14.355 32 32 32s32-14.355 32-32v-73.754l80-20v42.059c-21.137-12.259-48 3.005-48 27.695 0 17.645 14.355 32 32 32s32-14.355 32-32v-120zm-128 160c-8.822 0-16-7.177-16-16s7.178-16 16-16 16 7.177 16 16-7.178 16-16 16zm32-106.246v-23.507l80-20v23.507zm64 82.246c-8.822 0-16-7.177-16-16s7.178-16 16-16 16 7.177 16 16-7.178 16-16 16z"/></g></svg>