<svg height="512pt" viewBox="0 0 512 512" width="512pt" xmlns="http://www.w3.org/2000/svg"><path d="m366.933594 8.535156h34.132812c9.425782 0 17.066406 7.640625 17.066406 17.066406v324.265626c0 9.425781-7.640624 17.066406-17.066406 17.066406h-34.132812c-9.425782 0-17.066406-7.640625-17.066406-17.066406v-324.265626c0-9.425781 7.640624-17.066406 17.066406-17.066406zm0 0" fill="#354aa3"/><path d="m366.933594 8.535156h8.53125c9.425781 0 17.070312 7.640625 17.070312 17.066406v324.265626c0 9.425781-7.644531 17.066406-17.070312 17.066406h-8.53125c-9.425782 0-17.066406-7.640625-17.066406-17.066406v-324.265626c0-9.425781 7.640624-17.066406 17.066406-17.066406zm0 0" fill="#5068c1"/><path d="m435.199219 281.601562h-17.066407v-179.203124h17.066407c9.425781 0 17.066406 7.640624 17.066406 17.066406v145.070312c0 9.425782-7.640625 17.066406-17.066406 17.066406zm0 0" fill="#728f9c"/><path d="m503.464844 503.464844h-238.929688c.039063-28.257813 22.9375-51.15625 51.199219-51.199219h136.53125c28.277344 0 51.199219 22.925781 51.199219 51.199219zm0 0" fill="#475962"/><path d="m477.867188 503.464844h-213.332032c.039063-28.257813 22.9375-51.15625 51.199219-51.199219h110.933594c28.277343 0 51.199219 22.925781 51.199219 51.199219zm0 0" fill="#728f9c"/><path d="m196.265625 469.332031h-170.664063c-9.425781 0-17.066406 7.640625-17.066406 17.066407 0 9.425781 7.640625 17.066406 17.066406 17.066406h170.664063c9.425781 0 17.066406-7.640625 17.066406-17.066406 0-9.425782-7.640625-17.066407-17.066406-17.066407zm0 0" fill="#f88f00"/><path d="m42.667969 401.066406h25.597656c9.425781 0 17.066406 7.640625 17.066406 17.066406v51.199219h-59.730469v-51.199219c0-9.425781 7.640626-17.066406 17.066407-17.066406zm0 0" fill="#ffa700"/><path d="m25.601562 435.199219h59.730469v34.132812h-59.730469zm0 0" fill="#ff6e2c"/><path d="m162.132812 366.933594h-102.398437c-9.425781 0-17.066406 7.640625-17.066406 17.066406v17.066406h25.597656c9.425781 0 17.066406 7.640625 17.066406 17.066406v51.199219h93.867188v-85.332031c0-9.425781-7.640625-17.066406-17.066407-17.066406zm0 0" fill="#ffc900"/><path d="m102.398438 332.800781h17.066406c9.425781 0 17.070312 7.640625 17.070312 17.066407v17.066406h-51.203125v-17.066406c0-9.425782 7.640625-17.066407 17.066407-17.066407zm0 0" fill="#728f9c"/><path d="m59.734375 230.398438c0 14.140624-11.460937 25.601562-25.601563 25.601562-14.136718 0-25.597656-11.460938-25.597656-25.601562 0-14.136719 11.460938-25.597657 25.597656-25.597657 14.140626 0 25.601563 11.460938 25.601563 25.597657zm0 0" fill="#f85b44"/><path d="m401.066406 375.464844h-34.132812c-14.140625 0-25.601563-11.460938-25.601563-25.597656v-324.265626c0-14.140624 11.460938-25.601562 25.601563-25.601562h34.132812c14.140625 0 25.601563 11.460938 25.601563 25.601562v324.265626c0 14.136718-11.460938 25.597656-25.601563 25.597656zm-34.132812-358.398438c-4.714844 0-8.535156 3.820313-8.535156 8.535156v324.265626c0 4.710937 3.820312 8.53125 8.535156 8.53125h34.132812c4.714844 0 8.535156-3.820313 8.535156-8.53125v-324.265626c0-4.714843-3.820312-8.535156-8.535156-8.535156zm0 0"/><path d="m435.199219 290.132812h-17.066407c-4.710937 0-8.53125-3.820312-8.53125-8.53125v-179.203124c0-4.710938 3.820313-8.53125 8.53125-8.53125h17.066407c14.140625 0 25.601562 11.460937 25.601562 25.597656v145.070312c0 14.136719-11.460937 25.597656-25.601562 25.597656zm-8.53125-17.066406h8.53125c4.714843 0 8.535156-3.820312 8.535156-8.53125v-145.070312c0-4.710938-3.820313-8.53125-8.535156-8.53125h-8.53125zm0 0"/><path d="m503.464844 512h-238.929688c-4.714844 0-8.535156-3.820312-8.535156-8.535156.039062-32.972656 26.757812-59.695313 59.734375-59.730469h136.53125c32.976563.035156 59.695313 26.757813 59.734375 59.730469 0 4.714844-3.820312 8.535156-8.535156 8.535156zm-229.542969-17.066406h220.15625c-4.078125-19.855469-21.542969-34.109375-41.8125-34.132813h-136.53125c-20.269531.023438-37.734375 14.277344-41.8125 34.132813zm0 0"/><path d="m384 460.800781c-4.710938 0-8.535156-3.820312-8.535156-8.535156v-4.503906c-.050782-16.175781 9.09375-30.976563 23.589844-38.160157l64.664062-32.335937c8.691406-4.3125 14.179688-13.191406 14.148438-22.894531v-132.503906c0-14.140626-11.460938-25.601563-25.601563-25.601563-4.710937 0-8.53125-3.820313-8.53125-8.53125 0-4.714844 3.820313-8.535156 8.53125-8.535156 23.554687.027343 42.640625 19.113281 42.667969 42.667969v132.503906c.054687 16.175781-9.09375 30.976562-23.585938 38.164062l-64.667968 32.332032c-8.691407 4.3125-14.175782 13.191406-14.144532 22.894531v4.503906c0 4.714844-3.824218 8.535156-8.535156 8.535156zm0 0"/><path d="m196.265625 512h-170.664063c-14.140624 0-25.601562-11.460938-25.601562-25.601562 0-14.136719 11.460938-25.597657 25.601562-25.597657h170.664063c14.140625 0 25.601563 11.460938 25.601563 25.597657 0 14.140624-11.460938 25.601562-25.601563 25.601562zm-170.664063-34.132812c-4.714843 0-8.535156 3.820312-8.535156 8.53125 0 4.714843 3.820313 8.535156 8.535156 8.535156h170.664063c4.714844 0 8.535156-3.820313 8.535156-8.535156 0-4.710938-3.820312-8.53125-8.535156-8.53125zm0 0"/><path d="m85.332031 477.867188h-59.730469c-4.714843 0-8.535156-3.820313-8.535156-8.535157v-51.199219c0-14.136718 11.460938-25.597656 25.601563-25.597656h25.597656c14.140625 0 25.601563 11.460938 25.601563 25.597656v51.199219c0 4.714844-3.820313 8.535157-8.535157 8.535157zm-51.199219-17.066407h42.667969v-42.667969c0-4.710937-3.820312-8.53125-8.535156-8.53125h-25.597656c-4.714844 0-8.535157 3.820313-8.535157 8.53125zm0 0"/><path d="m85.332031 477.867188h-59.730469c-4.714843 0-8.535156-3.820313-8.535156-8.535157v-34.132812c0-4.710938 3.820313-8.53125 8.535156-8.53125h59.730469c4.714844 0 8.535157 3.820312 8.535157 8.53125v34.132812c0 4.714844-3.820313 8.535157-8.535157 8.535157zm-51.199219-17.066407h42.667969v-17.066406h-42.667969zm0 0"/><path d="m179.199219 477.867188h-93.867188c-4.710937 0-8.53125-3.820313-8.53125-8.535157v-51.199219c0-4.710937-3.820312-8.53125-8.535156-8.53125h-25.597656c-4.714844 0-8.535157-3.820312-8.535157-8.535156v-17.066406c0-14.136719 11.460938-25.601562 25.601563-25.601562h102.398437c14.140626 0 25.601563 11.464843 25.601563 25.601562v85.332031c0 4.714844-3.820313 8.535157-8.535156 8.535157zm-85.332031-17.066407h76.800781v-76.800781c0-4.710938-3.820313-8.535156-8.535157-8.535156h-102.398437c-4.714844 0-8.535156 3.824218-8.535156 8.535156v8.535156h17.066406c14.140625 0 25.601563 11.460938 25.601563 25.597656zm0 0"/><path d="m153.601562 435.199219c0 4.714843-3.820312 8.535156-8.535156 8.535156-4.710937 0-8.53125-3.820313-8.53125-8.535156 0-4.710938 3.820313-8.53125 8.53125-8.53125 4.714844 0 8.535156 3.820312 8.535156 8.53125zm0 0"/><path d="m136.535156 375.464844h-51.203125c-4.710937 0-8.53125-3.820313-8.53125-8.53125v-17.066406c0-14.140626 11.460938-25.601563 25.597657-25.601563h17.066406c14.140625 0 25.601562 11.460937 25.601562 25.601563v17.066406c0 4.710937-3.820312 8.53125-8.53125 8.53125zm-42.667968-17.066406h34.132812v-8.53125c0-4.714844-3.820312-8.535157-8.535156-8.535157h-17.066406c-4.710938 0-8.53125 3.820313-8.53125 8.535157zm0 0"/><path d="m34.132812 264.535156c-18.851562 0-34.132812-15.285156-34.132812-34.136718 0-18.851563 15.28125-34.132813 34.132812-34.132813 18.851563 0 34.132813 15.28125 34.132813 34.132813 0 18.851562-15.28125 34.136718-34.132813 34.136718zm0-51.203125c-9.425781 0-17.066406 7.640625-17.066406 17.066407 0 9.425781 7.640625 17.066406 17.066406 17.066406 9.425782 0 17.066407-7.640625 17.066407-17.066406 0-9.425782-7.640625-17.066407-17.066407-17.066407zm0 0"/><path d="m110.933594 341.332031c-2.636719.003907-5.125-1.210937-6.742188-3.292969l-59.734375-76.800781c-1.953125-2.398437-2.453125-5.664062-1.308593-8.539062 1.140624-2.875 3.75-4.90625 6.820312-5.308594 3.066406-.402344 6.109375.886719 7.957031 3.371094l59.730469 76.796875c2 2.574218 2.363281 6.058594.933594 8.984375-1.429688 2.929687-4.398438 4.785156-7.65625 4.789062zm0 0"/><path d="m264.535156 494.933594h-51.203125c-4.710937 0-8.53125-3.820313-8.53125-8.535156 0-4.710938 3.820313-8.53125 8.53125-8.53125h51.203125c4.710938 0 8.53125 3.820312 8.53125 8.53125 0 4.714843-3.820312 8.535156-8.53125 8.535156zm0 0"/><path d="m290.132812 196.265625h-25.597656c-4.714844 0-8.535156-3.820313-8.535156-8.53125 0-4.714844 3.820312-8.535156 8.535156-8.535156h25.597656c4.714844 0 8.535157 3.820312 8.535157 8.535156 0 4.710937-3.820313 8.53125-8.535157 8.53125zm0 0"/><path d="m307.199219 153.601562c-2.261719-.003906-4.433594-.902343-6.03125-2.5l-17.066407-17.070312c-3.234374-3.347656-3.1875-8.667969.101563-11.960938 3.292969-3.292968 8.613281-3.335937 11.964844-.101562l17.066406 17.066406c2.4375 2.4375 3.167969 6.109375 1.847656 9.296875-1.320312 3.1875-4.429687 5.265625-7.882812 5.269531zm0 0"/><path d="m290.132812 256c-3.449218 0-6.5625-2.078125-7.882812-5.269531-1.320312-3.1875-.589844-6.855469 1.851562-9.296875l17.066407-17.066406c3.347656-3.234376 8.667969-3.1875 11.960937.105468 3.292969 3.289063 3.339844 8.613282.105469 11.960938l-17.066406 17.066406c-1.601563 1.601562-3.773438 2.5-6.035157 2.5zm0 0"/><path d="m34.132812 179.199219c-4.710937 0-8.53125-3.820313-8.53125-8.53125v-17.066407c0-4.714843 3.820313-8.535156 8.53125-8.535156 4.714844 0 8.535157 3.820313 8.535157 8.535156v17.066407c0 4.710937-3.820313 8.53125-8.535157 8.53125zm0 0"/><path d="m68.265625 187.734375c-3.449219 0-6.558594-2.082031-7.882813-5.269531-1.320312-3.1875-.589843-6.859375 1.851563-9.296875l8.53125-8.535157c3.347656-3.234374 8.671875-3.1875 11.964844.105469 3.289062 3.289063 3.335937 8.613281.101562 11.960938l-8.53125 8.535156c-1.601562 1.597656-3.769531 2.5-6.035156 2.5zm0 0"/><path d="m384 179.199219c-4.710938 0-8.535156-3.820313-8.535156-8.53125v-162.132813c0-4.714844 3.824218-8.535156 8.535156-8.535156s8.535156 3.820312 8.535156 8.535156v162.132813c0 4.710937-3.824218 8.53125-8.535156 8.53125zm0 0"/><path d="m384 375.464844c-4.710938 0-8.535156-3.820313-8.535156-8.53125v-162.132813c0-4.714843 3.824218-8.535156 8.535156-8.535156s8.535156 3.820313 8.535156 8.535156v162.132813c0 4.710937-3.824218 8.53125-8.535156 8.53125zm0 0"/></svg>