<svg id="Flat" height="512" viewBox="0 0 512 512" width="512" xmlns="http://www.w3.org/2000/svg"><path d="m236 292h40v32h-40z" fill="#606669" transform="matrix(0 -1 1 0 -52 564)"/><path d="m56 24h400v240h-400z" fill="#9aa3a8"/><path d="m56 248h400a0 0 0 0 1 0 0v32a16 16 0 0 1 -16 16h-368a16 16 0 0 1 -16-16v-32a0 0 0 0 1 0 0z" fill="#6a7073"/><circle cx="256" cy="128" fill="#e9eef2" r="72"/><path d="m232 96v64l56-32z" fill="#eb423f"/><path d="m103.99 360a8 8 0 0 1 -7.935-7.066l-15.43-131.156-59.434-22.288a8 8 0 0 1 5.618-14.98l64 24a8 8 0 0 1 5.136 6.555l16 136a8 8 0 0 1 -7.01 8.88 8.173 8.173 0 0 1 -.945.055z" fill="#e9eef2"/><path d="m336 336h-160a8 8 0 0 1 0-16h160a8 8 0 0 1 0 16z" fill="#6a7073"/><path d="m435.332 332 20-44s5.666-27.667-16-40-40 8-40 8-5-32-40-32c-45.25 0-48 32-48 32s-15.667-22.333-40-8-16 40-16 40c4 12 12 44 12 44z" fill="#ffd33a"/><path d="m403.932 215.667c2 1.272 11.594 1.349 15.965 8.068 6.024 9.258-.851 20.569-9.715 27.159s-15.8 5.569-22.386-3.3c-.888-1.194-8.961-11.538-9.546-12.841-6.928 6.6-18.661 14.287-28.806 1.477-6.858-8.659-6.512-18.975-1.478-28.806 6.353-12.407 20.424-13.313 24.034-7.9 0 0 5.02-17.966 19.261-14.318 25.139 6.447 12.671 30.461 12.671 30.461z" fill="#ffe76c"/><path d="m448 304-16 184h-160l-16-184a23.993 23.993 0 0 1 40.21-17.69h.01a23.952 23.952 0 0 1 7.78 17.69 24 24 0 0 1 48 0 24 24 0 0 1 48 0 24 24 0 0 1 48 0z" fill="#eb423f"/><g fill="#ed6f6d"><path d="m360 286.12v201.88h-16v-201.88a23.927 23.927 0 0 1 8 17.88 23.927 23.927 0 0 1 8-17.88z"/><path d="m320 487.71v.29h-16.01l-7.18-201.13a23.924 23.924 0 0 1 7.19 17.13 23.9 23.9 0 0 1 8.22-18.07c.18-.16.36-.31.55-.47z"/><path d="m407.19 286.87-7.18 201.13h-16.01v-.29l7.23-202.25c.19.16.37.31.55.47a23.9 23.9 0 0 1 8.22 18.07 23.924 23.924 0 0 1 7.19-17.13z"/></g><ellipse cx="352" cy="384" fill="#ffd33a" rx="56" ry="32"/><path d="m272 440c-1.333-11.992-6.833-24-24-24-18 0-21.928 12.509-23.713 24-11.487 1.785-24.287 12.008-24.287 24a24 24 0 0 0 24 24c7.171 0 24-7.167 24-16 0 9.333 8.829 16 16 16a24 24 0 0 0 24-24c0-10.506-6.6-20.748-16-24z" fill="#ffe76c"/><path d="m488 432a24 24 0 0 0 -24-24c-8.5 0-16.333 7.833-16 16-3.833-5.833-11.72-8-16-8a24 24 0 0 0 0 48 24 24 0 0 0 48 0c0-4.28-.667-13.333-8-16 10-1.833 16-7.5 16-16z" fill="#ffe76c"/><path d="m160 280h-104l-8 32v144l8 32h104l8-32v-144z" fill="#dadcde"/><path d="m48 312h120v144h-120z" fill="#dadcde"/><path d="m48 312h120v144h-120z" fill="#eb423f"/><path d="m48 368s23.75 40 120 40v48h-120z" fill="#c7312e"/></svg>